<svg xmlns="http://www.w3.org/2000/svg" xmlns:xlink="http://www.w3.org/1999/xlink" viewBox="0,0,256,256" width="48px" height="48px"><g fill="#ffffff" fill-rule="nonzero" stroke="none" stroke-width="1" stroke-linecap="butt" stroke-linejoin="miter" stroke-miterlimit="10" stroke-dasharray="" stroke-dashoffset="0" font-family="none" font-weight="none" font-size="none" text-anchor="none" style="mix-blend-mode: normal"><g transform="scale(5.33333,5.33333)"><path d="M24,4c-3.11814,0 -6.07845,0.71694 -8.71289,1.99414c-0.49334,0.2271 -0.82541,0.70312 -0.86819,1.24454c-0.04278,0.54142 0.21041,1.06367 0.66197,1.36544c0.45155,0.30176 1.03095,0.3359 1.51481,0.08925c2.23756,-1.0848 4.74444,-1.69336 7.4043,-1.69336c9.40629,0 17,7.59371 17,17c0,6.93712 -4.14412,12.88243 -10.08008,15.53125c-0.75669,0.33763 -1.09642,1.22475 -0.75879,1.98145c0.33763,0.75669 1.22475,1.09642 1.98145,0.75879c6.99004,-3.11918 11.85742,-10.13861 11.85742,-18.27148c0,-11.02771 -8.97229,-20 -20,-20zM9.03516,11.64453c-0.49534,-0.00591 -0.96166,0.2331 -1.24609,0.63867c-2.38314,3.29209 -3.78906,7.34765 -3.78906,11.7168c0,11.02771 8.97229,20 20,20c0.84062,0 1.67225,-0.05256 2.48828,-0.1543c0.5408,-0.05563 1.00917,-0.39949 1.22425,-0.89879c0.21508,-0.4993 0.14319,-1.07588 -0.18789,-1.50708c-0.33108,-0.4312 -0.86955,-0.64954 -1.40745,-0.57069c-0.69196,0.08627 -1.3998,0.13086 -2.11719,0.13086c-9.40629,0 -17,-7.59371 -17,-17c0,-3.72685 1.19384,-7.15907 3.2207,-9.95898c0.33719,-0.45245 0.39197,-1.05585 0.14176,-1.56162c-0.25021,-0.50577 -0.76307,-0.82836 -1.32731,-0.83487zM13.81641,17.125c-0.699,0 -0.81641,0.34298 -0.81641,0.70898c0,0.661 0.55073,4.2338 3.55273,8.3418c2.177,2.979 5.04499,4.69727 7.58398,4.69727c1.538,0 1.69531,-0.38995 1.69531,-1.00195v-2.72461c0.001,-0.734 0.1692,-0.85547 0.6582,-0.85547c0.349,0 1.06055,0.22803 2.43555,1.83203c1.586,1.85 1.8742,2.75 2.7832,2.75h2.40039c0.557,0 0.87567,-0.23255 0.88867,-0.68555c0.003,-0.115 -0.01378,-0.24467 -0.05078,-0.38867c-0.178,-0.528 -0.99277,-1.82078 -2.00977,-3.05078c-0.564,-0.681 -1.12095,-1.3547 -1.37695,-1.7207c-0.171,-0.239 -0.23652,-0.40931 -0.22852,-0.57031c0.008,-0.17 0.09652,-0.32969 0.22852,-0.55469c-0.023,0 3.07786,-4.35622 3.38086,-5.82422c0.042,-0.138 0.06164,-0.26686 0.05664,-0.38086c-0.014,-0.332 -0.24034,-0.57227 -0.77734,-0.57227h-2.40039c-0.606,0 -0.88483,0.36737 -1.04883,0.73438c0,0 -1.4967,3.07937 -3.2207,5.10938c-0.559,0.588 -0.84348,0.57227 -1.14648,0.57227c-0.162,0 -0.57227,-0.19637 -0.57227,-0.73437v-4.75195c0,-0.636 -0.15792,-0.92969 -0.66992,-0.92969h-4.26172c-0.373,0 -0.56641,0.29289 -0.56641,0.58789c0,0.611 0.82397,0.7577 0.91797,2.4707v3.32227c0,0.807 -0.14036,0.95117 -0.44336,0.95117c-0.816,0 -2.42305,-2.74952 -3.49805,-6.35352c-0.233,-0.709 -0.46627,-0.97852 -1.07227,-0.97852z"></path></g></g></svg>