
  <svg width="610.5" height="48" viewBox="0 0 3256 256" fill="none" xmlns="http://www.w3.org/2000/svg" xmlns:xlink="http://www.w3.org/1999/xlink" version="1.1">
    
        <g transform="translate(0, 0)">
          <svg xmlns="http://www.w3.org/2000/svg" width="256" height="256" fill="none" viewBox="0 0 256 256"><rect width="256" height="256" fill="#242938" rx="60"/><path fill="#fff" d="M121.451 28.0537C121.021 28.0928 119.652 28.2297 118.42 28.3274C90.0137 30.8885 63.4057 46.216 46.5533 69.7742C37.1691 82.8729 31.1672 97.7312 28.8993 113.469C28.0978 118.963 28 120.586 28 128.034C28 135.483 28.0978 137.106 28.8993 142.599C34.3343 180.155 61.0596 211.71 97.306 223.401C103.797 225.493 110.639 226.92 118.42 227.78C121.451 228.112 134.549 228.112 137.58 227.78C151.011 226.294 162.389 222.971 173.611 217.242C175.331 216.363 175.664 216.128 175.429 215.933C175.273 215.815 167.941 205.981 159.144 194.095L143.152 172.492L123.112 142.834C112.086 126.529 103.015 113.195 102.936 113.195C102.858 113.176 102.78 126.353 102.741 142.443C102.682 170.615 102.663 171.749 102.311 172.413C101.803 173.371 101.412 173.762 100.59 174.193C99.9648 174.505 99.4174 174.564 96.4653 174.564H93.0831L92.1838 173.997C91.5973 173.626 91.1672 173.137 90.8739 172.57L90.4633 171.69L90.5024 132.492L90.5611 93.2737L91.1672 92.5112C91.48 92.1007 92.1447 91.5728 92.6139 91.3186C93.4154 90.9276 93.7283 90.8885 97.1105 90.8885C101.099 90.8885 101.763 91.0449 102.8 92.1789C103.093 92.4917 113.943 108.836 126.925 128.523C139.906 148.21 157.658 175.092 166.377 188.288L182.213 212.277L183.015 211.749C190.111 207.135 197.619 200.566 203.562 193.723C216.211 179.197 224.364 161.485 227.101 142.599C227.902 137.106 228 135.483 228 128.034C228 120.586 227.902 118.963 227.101 113.469C221.666 75.913 194.94 44.3587 158.694 32.6676C152.301 30.5953 145.498 29.1681 137.873 28.3079C135.996 28.1124 123.073 27.8973 121.451 28.0537ZM162.389 88.5425C163.327 89.0117 164.09 89.911 164.364 90.8494C164.52 91.3577 164.559 102.228 164.52 126.724L164.461 161.876L158.264 152.374L152.047 142.873V117.321C152.047 100.801 152.125 91.5141 152.242 91.0645C152.555 89.9697 153.239 89.1095 154.178 88.6011C154.979 88.1906 155.273 88.1515 158.342 88.1515C161.236 88.1515 161.744 88.1906 162.389 88.5425Z"/></svg>
        </g>
         
        <g transform="translate(300, 0)">
          <svg xmlns="http://www.w3.org/2000/svg" width="256" height="256" fill="none" viewBox="0 0 256 256"><rect width="256" height="256" fill="#242938" rx="60"/><path fill="#00D8FF" d="M128.001 146.951C138.305 146.951 146.657 138.598 146.657 128.295C146.657 117.992 138.305 109.639 128.001 109.639C117.698 109.639 109.345 117.992 109.345 128.295C109.345 138.598 117.698 146.951 128.001 146.951Z"/><path fill-rule="evenodd" stroke="#00D8FF" stroke-width="8.911" d="M128.002 90.3633C153.05 90.3633 176.319 93.9575 193.864 99.9976C215.003 107.275 228 118.306 228 128.295C228 138.704 214.226 150.423 191.525 157.944C174.363 163.63 151.779 166.598 128.002 166.598C103.624 166.598 80.5389 163.812 63.1834 157.881C41.2255 150.376 28 138.506 28 128.295C28 118.387 40.4096 107.441 61.2515 100.175C78.8617 94.0353 102.705 90.3633 127.998 90.3633H128.002Z" clip-rule="evenodd"/><path fill-rule="evenodd" stroke="#00D8FF" stroke-width="8.911" d="M94.9811 109.438C107.495 87.7402 122.232 69.3783 136.23 57.1971C153.094 42.5206 169.144 36.7728 177.796 41.7623C186.813 46.9623 190.084 64.7496 185.259 88.1712C181.614 105.879 172.9 126.925 161.021 147.523C148.842 168.641 134.897 187.247 121.09 199.315C103.619 214.587 86.7284 220.114 77.8833 215.013C69.3003 210.067 66.0181 193.846 70.1356 172.161C73.6145 153.838 82.3451 131.349 94.977 109.438L94.9811 109.438Z" clip-rule="evenodd"/><path fill-rule="evenodd" stroke="#00D8FF" stroke-width="8.911" d="M95.0123 147.578C82.4633 125.904 73.9194 103.962 70.3531 85.7517C66.0602 63.8109 69.0954 47.0355 77.7401 42.0315C86.7485 36.8163 103.792 42.866 121.674 58.7437C135.194 70.7479 149.077 88.8052 160.99 109.383C173.204 130.481 182.358 151.856 185.919 169.844C190.425 192.608 186.778 210.001 177.941 215.116C169.367 220.08 153.676 214.825 136.945 200.427C122.809 188.263 107.685 169.468 95.0123 147.578Z" clip-rule="evenodd"/></svg>
        </g>
         
        <g transform="translate(600, 0)">
          <svg width="256" height="256" viewBox="0 0 256 256" fill="none" xmlns="http://www.w3.org/2000/svg">
<rect width="256" height="256" rx="60" fill="#764ABC"/>
<path d="M166.579 165.599C173.96 164.835 179.559 158.472 179.304 150.837C179.05 143.202 172.687 137.094 165.052 137.094H164.543C156.653 137.348 150.545 143.965 150.799 151.855C151.054 155.673 152.581 158.981 154.871 161.272C146.218 178.324 132.984 190.795 113.132 201.23C99.6432 208.356 85.6452 210.901 71.6472 209.12C60.1944 207.593 51.2866 202.502 45.6874 194.104C37.5431 181.633 36.7796 168.144 43.6513 154.655C48.487 144.983 56.1222 137.857 60.9579 134.294C59.9399 130.986 58.4128 125.386 57.6493 121.314C20.7456 148.038 24.5632 184.178 35.7615 201.23C44.1603 213.955 61.2124 221.845 80.046 221.845C85.1362 221.845 90.2264 221.336 95.3165 220.063C127.894 213.701 152.581 194.358 166.579 165.599V165.599Z" fill="white"/>
<path d="M211.372 134.04C192.03 111.388 163.525 98.9175 130.948 98.9175H126.876C124.585 94.3363 119.749 91.2822 114.405 91.2822H113.896C106.006 91.5367 99.8977 98.154 100.152 106.044C100.407 113.679 106.769 119.787 114.405 119.787H114.914C120.513 119.533 125.349 115.97 127.385 111.134H131.966C151.308 111.134 169.633 116.733 186.176 127.677C198.901 136.076 208.064 147.02 213.154 160.254C217.481 170.943 217.226 181.378 212.645 190.286C205.519 203.775 193.557 211.156 177.777 211.156C167.597 211.156 157.926 208.102 152.835 205.811C150.036 208.356 144.946 212.428 141.383 214.973C152.326 220.063 163.525 222.863 174.214 222.863C198.647 222.863 216.717 209.374 223.589 195.885C230.97 181.124 230.461 155.673 211.372 134.04Z" fill="white"/>
<path d="M82.0822 169.926C82.3367 177.561 88.6994 183.669 96.3347 183.669H96.8437C104.733 183.414 110.842 176.797 110.587 168.907C110.333 161.272 103.97 155.164 96.3347 155.164H95.8256C95.3166 155.164 94.5531 155.164 94.0441 155.419C83.6092 138.112 79.2826 119.278 80.8096 98.9177C81.8277 83.6472 86.9178 70.4127 95.8256 59.4689C103.206 50.0521 117.459 45.4709 127.13 45.2164C154.108 44.7074 165.561 78.3025 166.324 91.7915C169.633 92.555 175.232 94.3365 179.05 95.6091C175.996 54.3787 150.545 33 126.112 33C103.206 33 82.0822 49.543 73.6834 73.9759C61.976 106.553 69.6113 137.857 83.8637 162.545C82.5912 164.326 81.8277 167.126 82.0822 169.926V169.926Z" fill="white"/>
</svg>

        </g>
         
        <g transform="translate(900, 0)">
          <svg xmlns="http://www.w3.org/2000/svg" width="256" height="256" fill="none" viewBox="0 0 256 256"><rect width="256" height="256" fill="url(#paint0_linear_158_100)" rx="60"/><g filter="url(#filter0_d_158_100)"><path fill="url(#paint1_linear_158_100)" d="M131.97 196.157C161.646 196.157 179.529 181.626 179.529 157.66C179.529 139.543 166.77 126.428 147.823 124.351V123.597C161.743 121.332 172.666 108.405 172.666 93.9689C172.666 73.3992 156.427 60 131.68 60H76V196.157H131.97ZM97.6533 77.2674H126.46C142.12 77.2674 151.013 84.2497 151.013 96.8935C151.013 110.387 140.67 117.935 121.917 117.935H97.6533V77.2674V77.2674ZM97.6533 178.89V134.071H126.266C146.76 134.071 157.393 141.619 157.393 156.339C157.393 171.058 147.05 178.89 127.523 178.89H97.6533V178.89Z"/><path stroke="#fff" stroke-width="2" d="M131.97 196.157C161.646 196.157 179.529 181.626 179.529 157.66C179.529 139.543 166.77 126.428 147.823 124.351V123.597C161.743 121.332 172.666 108.405 172.666 93.9689C172.666 73.3992 156.427 60 131.68 60H76V196.157H131.97ZM97.6533 77.2674H126.46C142.12 77.2674 151.013 84.2497 151.013 96.8935C151.013 110.387 140.67 117.935 121.917 117.935H97.6533V77.2674V77.2674ZM97.6533 178.89V134.071H126.266C146.76 134.071 157.393 141.619 157.393 156.339C157.393 171.058 147.05 178.89 127.523 178.89H97.6533V178.89Z"/></g><defs><filter id="filter0_d_158_100" width="137.529" height="170.157" x="59" y="47" color-interpolation-filters="sRGB" filterUnits="userSpaceOnUse"><feFlood flood-opacity="0" result="BackgroundImageFix"/><feColorMatrix in="SourceAlpha" result="hardAlpha" type="matrix" values="0 0 0 0 0 0 0 0 0 0 0 0 0 0 0 0 0 0 127 0"/><feOffset dy="4"/><feGaussianBlur stdDeviation="8"/><feColorMatrix type="matrix" values="0 0 0 0 0 0 0 0 0 0 0 0 0 0 0 0 0 0 0.15 0"/><feBlend in2="BackgroundImageFix" mode="normal" result="effect1_dropShadow_158_100"/><feBlend in="SourceGraphic" in2="effect1_dropShadow_158_100" mode="normal" result="shape"/></filter><linearGradient id="paint0_linear_158_100" x1="0" x2="256" y1="0" y2="256" gradientUnits="userSpaceOnUse"><stop stop-color="#9013FE"/><stop offset="1" stop-color="#6B11F4"/></linearGradient><linearGradient id="paint1_linear_158_100" x1="85.793" x2="148.541" y1="68.962" y2="175.084" gradientUnits="userSpaceOnUse"><stop stop-color="#fff"/><stop offset="1" stop-color="#F1E5FC"/></linearGradient></defs></svg>
        </g>
         
        <g transform="translate(1200, 0)">
          <svg width="256" height="256" viewBox="0 0 256 256" fill="none" xmlns="http://www.w3.org/2000/svg">
<rect width="256" height="256" rx="60" fill="#0277BD"/>
<path d="M53.7527 102.651L56.6155 134.593H128.096V102.651H53.7527Z" fill="#EBEBEB"/>
<path d="M128.095 38H127.985H48L50.9036 69.9423H128.095V38Z" fill="#EBEBEB"/>
<path d="M128.095 218.841V185.608L127.955 185.645L92.3813 176.04L90.1072 150.564H72.821H58.0425L62.5175 200.718L127.948 218.882L128.095 218.841Z" fill="#EBEBEB"/>
<path d="M167.318 134.593L163.61 176.019L127.985 185.635V218.866L193.468 200.718L193.948 195.321L201.454 111.229L202.233 102.651L208 38H127.985V69.9423H172.994L170.088 102.651H127.985V134.593H167.318Z" fill="white"/>
</svg>

        </g>
         
        <g transform="translate(1500, 0)">
          <svg xmlns="http://www.w3.org/2000/svg" width="256" height="256" fill="none" viewBox="0 0 256 256"><rect width="256" height="256" fill="#CD6799" rx="60"/><g clip-path="url(#clip0_137_201)"><path fill="#fff" d="M200.107 139.163C193.133 139.199 187.073 140.879 181.998 143.361C180.136 139.674 178.274 136.388 177.945 133.978C177.58 131.167 177.142 129.451 177.58 126.092C178.018 122.733 179.99 117.951 179.953 117.586C179.917 117.22 179.515 115.505 175.499 115.468C171.483 115.432 168.015 116.235 167.613 117.294C167.211 118.352 166.445 120.762 165.934 123.245C165.24 126.896 157.901 139.93 153.703 146.757C152.352 144.092 151.184 141.755 150.928 139.893C150.563 137.082 150.125 135.366 150.563 132.007C151.001 128.648 152.973 123.865 152.936 123.5C152.9 123.135 152.498 121.419 148.482 121.383C144.466 121.346 140.997 122.149 140.596 123.208C140.194 124.267 139.756 126.75 138.916 129.159C138.077 131.569 128.329 153.329 125.773 158.951C124.459 161.835 123.327 164.135 122.524 165.705C122.524 165.705 122.487 165.815 122.378 165.997C121.684 167.348 121.282 168.078 121.282 168.078C121.282 168.078 121.282 168.078 121.282 168.115C120.735 169.101 120.15 170.013 119.858 170.013C119.639 170.013 119.238 167.385 119.931 163.807C121.392 156.249 124.86 144.493 124.824 144.092C124.824 143.873 125.481 141.828 122.56 140.769C119.712 139.71 118.69 141.463 118.434 141.463C118.179 141.463 117.996 142.084 117.996 142.084C117.996 142.084 121.173 128.867 111.936 128.867C106.167 128.867 98.2081 135.183 94.2651 140.879C91.7824 142.23 86.4885 145.114 80.8295 148.217C78.6755 149.422 76.4484 150.627 74.3673 151.759C74.2213 151.613 74.0753 151.43 73.9292 151.284C62.7573 139.345 42.0928 130.912 42.969 114.884C43.2976 109.042 45.3056 93.7083 82.655 75.0883C113.396 59.9368 137.858 64.1354 142.093 73.4454C148.153 86.7349 128.986 111.415 97.2224 114.993C85.1012 116.344 78.7485 111.671 77.1421 109.919C75.4626 108.093 75.2071 107.984 74.5864 108.349C73.5641 108.896 74.2213 110.539 74.5864 111.488C75.5356 113.971 79.4422 118.352 86.0504 120.506C91.892 122.405 106.094 123.464 123.29 116.819C142.531 109.371 157.573 88.6699 153.155 71.3278C148.738 53.7302 119.53 47.9251 91.892 57.7462C75.4626 63.5878 57.6459 72.7882 44.831 84.7634C29.6065 99.0022 27.1968 111.379 28.1826 116.563C31.724 134.964 57.0983 146.939 67.2479 155.811C66.7368 156.103 66.2622 156.359 65.8606 156.578C60.7857 159.097 41.4356 169.21 36.6163 179.908C31.1399 192.029 37.4926 200.718 41.6912 201.886C54.7251 205.501 68.1242 199.002 75.3166 188.268C82.509 177.534 81.6328 163.588 78.3104 157.199C78.2739 157.126 78.2374 157.053 78.1643 156.98C79.4787 156.213 80.8295 155.41 82.1439 154.643C84.7361 153.11 87.2917 151.686 89.4823 150.517C88.241 153.913 87.3283 157.965 86.8901 163.807C86.3425 170.671 89.1537 179.579 92.8412 183.084C94.4842 184.617 96.4192 184.654 97.6605 184.654C101.969 184.654 103.904 181.076 106.058 176.841C108.686 171.656 111.06 165.632 111.06 165.632C111.06 165.632 108.102 181.916 116.134 181.916C119.055 181.916 122.012 178.119 123.327 176.184C123.327 176.22 123.327 176.22 123.327 176.22C123.327 176.22 123.4 176.111 123.546 175.855C123.838 175.38 124.02 175.088 124.02 175.088C124.02 175.088 124.02 175.052 124.02 175.015C125.189 172.971 127.817 168.334 131.724 160.63C136.762 150.7 141.618 138.287 141.618 138.287C141.618 138.287 142.056 141.317 143.553 146.355C144.429 149.313 146.255 152.562 147.715 155.702C146.547 157.345 145.817 158.257 145.817 158.257C145.817 158.257 145.817 158.257 145.853 158.294C144.904 159.535 143.882 160.886 142.75 162.2C138.77 166.947 134.024 172.387 133.367 173.957C132.6 175.819 132.783 177.169 134.243 178.265C135.302 179.068 137.2 179.177 139.135 179.068C142.713 178.812 145.233 177.936 146.474 177.388C148.409 176.695 150.673 175.636 152.79 174.066C156.697 171.182 159.07 167.056 158.851 161.616C158.741 158.622 157.755 155.629 156.551 152.817C156.916 152.306 157.244 151.795 157.609 151.284C163.78 142.266 168.562 132.372 168.562 132.372C168.562 132.372 169 135.402 170.497 140.441C171.227 142.996 172.724 145.771 174.039 148.473C168.234 153.183 164.656 158.659 163.378 162.237C161.078 168.882 162.867 171.875 166.262 172.569C167.796 172.898 169.986 172.168 171.593 171.474C173.637 170.817 176.047 169.685 178.347 168.005C182.253 165.121 186.014 161.105 185.795 155.665C185.685 153.183 185.028 150.736 184.115 148.363C189.044 146.319 195.397 145.187 203.502 146.136C220.881 148.181 224.313 159.024 223.655 163.588C222.998 168.151 219.347 170.634 218.142 171.401C216.938 172.168 216.536 172.423 216.646 172.971C216.792 173.774 217.376 173.737 218.398 173.591C219.822 173.336 227.525 169.904 227.854 161.507C228.402 150.773 218.179 139.053 200.107 139.163ZM66.0431 184.362C60.2746 190.641 52.2425 193.015 48.7741 191.007C45.0501 188.852 46.5105 179.579 53.5933 172.934C57.9015 168.882 63.4509 165.121 67.1384 162.821C67.9781 162.31 69.2195 161.58 70.7164 160.667C70.9719 160.521 71.118 160.448 71.118 160.448C71.41 160.265 71.7021 160.083 71.9942 159.9C74.5864 169.393 72.1037 177.754 66.0431 184.362ZM108.029 155.811C106.021 160.704 101.823 173.226 99.2669 172.533C97.0763 171.948 95.7255 162.456 98.8288 153.073C100.399 148.363 103.721 142.741 105.656 140.55C108.796 137.045 112.264 135.877 113.104 137.301C114.163 139.163 109.271 152.744 108.029 155.811ZM142.677 172.387C141.837 172.825 141.034 173.117 140.669 172.898C140.413 172.752 141.034 172.168 141.034 172.168C141.034 172.168 145.379 167.494 147.095 165.377C148.08 164.135 149.249 162.675 150.49 161.032C150.49 161.178 150.49 161.361 150.49 161.507C150.49 167.093 145.087 170.853 142.677 172.387ZM169.402 166.289C168.781 165.851 168.891 164.391 170.972 159.827C171.775 158.038 173.674 155.045 176.923 152.16C177.288 153.329 177.544 154.46 177.507 155.519C177.471 162.566 172.432 165.194 169.402 166.289Z"/></g><defs><clipPath id="clip0_137_201"><rect width="200" height="149.909" fill="#fff" transform="translate(28 53)"/></clipPath></defs></svg>
        </g>
         
        <g transform="translate(1800, 0)">
          <svg xmlns="http://www.w3.org/2000/svg" width="256" height="256" fill="none" viewBox="0 0 256 256"><rect width="256" height="256" fill="#242938" rx="60"/><path fill="url(#paint0_linear_2_119)" fill-rule="evenodd" d="M83 110C88.9991 86.0009 104.001 74 128 74C164 74 168.5 101 186.5 105.5C198.501 108.501 209 104.001 218 92C212.001 115.999 196.999 128 173 128C137 128 132.5 101 114.5 96.5C102.499 93.4991 92 97.9991 83 110ZM38 164C43.9991 140.001 59.0009 128 83 128C119 128 123.5 155 141.5 159.5C153.501 162.501 164 158.001 173 146C167.001 169.999 151.999 182 128 182C92 182 87.5 155 69.5 150.5C57.4991 147.499 47 151.999 38 164Z" clip-rule="evenodd"/><defs><linearGradient id="paint0_linear_2_119" x1="86.5" x2="163.5" y1="74" y2="185.5" gradientUnits="userSpaceOnUse"><stop stop-color="#32B1C1"/><stop offset="1" stop-color="#14C6B7"/></linearGradient></defs></svg>
        </g>
         
        <g transform="translate(2100, 0)">
          <svg xmlns="http://www.w3.org/2000/svg" width="256" height="256" fill="none" viewBox="0 0 256 256"><rect width="256" height="256" fill="#E14E1D" rx="60"/><path fill="#fff" d="M48 38L56.6098 134.593H167.32L163.605 176.023L127.959 185.661L92.38 176.037L90.0012 149.435H57.9389L62.5236 200.716L127.951 218.888L193.461 200.716L202.244 102.655H85.8241L82.901 69.9448H205.041H205.139L208 38H48Z"/><path fill="#EBEBEB" d="M128 38H48L56.6098 134.593H128V102.655H85.8241L82.901 69.9448H128V38Z"/><path fill="#EBEBEB" d="M128 185.647L127.959 185.661L92.38 176.037L90.0012 149.435H57.9388L62.5236 200.716L127.951 218.888L128 218.874V185.647Z"/></svg>
        </g>
         
        <g transform="translate(2400, 0)">
          <svg width="256" height="256" viewBox="0 0 256 256" fill="none" xmlns="http://www.w3.org/2000/svg">
<rect width="256" height="256" rx="60" fill="#F0DB4F"/>
<path d="M67.3117 213.932L86.9027 202.076C90.6821 208.777 94.1202 214.447 102.367 214.447C110.272 214.447 115.256 211.355 115.256 199.327V117.529H139.314V199.667C139.314 224.584 124.708 235.926 103.398 235.926C84.1533 235.926 72.9819 225.959 67.3113 213.93" fill="#323330"/>
<path d="M152.381 211.354L171.969 200.013C177.126 208.434 183.828 214.62 195.684 214.62C205.653 214.62 212.009 209.636 212.009 202.762C212.009 194.514 205.479 191.592 194.481 186.782L188.468 184.203C171.111 176.815 159.597 167.535 159.597 147.945C159.597 129.901 173.345 116.153 194.826 116.153C210.12 116.153 221.118 121.481 229.022 135.4L210.291 147.429C206.166 140.04 201.7 137.119 194.826 137.119C187.78 137.119 183.312 141.587 183.312 147.429C183.312 154.646 187.78 157.568 198.09 162.037L204.104 164.614C224.553 173.379 236.067 182.313 236.067 202.418C236.067 224.072 219.055 235.928 196.2 235.928C173.861 235.928 159.426 225.274 152.381 211.354" fill="#323330"/>
</svg>

        </g>
         
        <g transform="translate(2700, 0)">
          <svg xmlns="http://www.w3.org/2000/svg" width="256" height="256" fill="none" viewBox="0 0 256 256"><rect width="256" height="256" fill="#007ACC" rx="60"/><path fill="#fff" d="M56.6112 128.849L56.5299 139.333H73.1902H89.8505L89.8505 186.673V234.012H101.635H113.419V186.673L113.419 139.333H130.079H146.739V129.052C146.739 123.363 146.618 118.609 146.455 118.487C146.333 118.325 126.056 118.243 101.472 118.284L56.7331 118.406L56.6112 128.849Z"/><path fill="#fff" d="M206.567 118.108C213.068 119.734 218.026 122.619 222.577 127.332C224.934 129.852 228.428 134.444 228.713 135.541C228.794 135.866 217.66 143.343 210.915 147.528C210.671 147.691 209.695 146.634 208.598 145.009C205.307 140.214 201.853 138.141 196.57 137.776C188.809 137.247 183.811 141.311 183.852 148.097C183.852 150.088 184.136 151.266 184.949 152.892C186.655 156.427 189.825 158.54 199.781 162.847C218.107 170.731 225.949 175.932 230.826 183.327C236.271 191.576 237.49 204.742 233.792 214.535C229.729 225.181 219.651 232.414 205.469 234.812C201.081 235.584 190.678 235.462 185.965 234.609C175.684 232.78 165.932 227.701 159.918 221.037C157.561 218.436 152.969 211.65 153.254 211.162C153.375 211 154.432 210.35 155.61 209.659C156.748 209.009 161.056 206.53 165.119 204.173L172.474 199.906L174.018 202.182C176.172 205.473 180.885 209.984 183.73 211.487C191.897 215.795 203.113 215.185 208.639 210.228C210.996 208.074 211.971 205.839 211.971 202.548C211.971 199.581 211.605 198.281 210.061 196.046C208.07 193.202 204.007 190.804 192.466 185.806C179.26 180.117 173.571 176.582 168.37 170.974C165.363 167.724 162.518 162.522 161.34 158.174C160.365 154.558 160.121 145.496 160.893 141.839C163.615 129.08 173.246 120.181 187.143 117.539C191.654 116.686 202.137 117.011 206.567 118.108Z"/></svg>
        </g>
        
  </svg>
  